M48
; DRILL file {KiCad 9.0.3} date 2025-12-22T19:43:02-0500
; FORMAT={-:-/ absolute / inch / decimal}
; #@! TF.CreationDate,2025-12-22T19:43:02-05:00
; #@! TF.GenerationSoftware,Kicad,Pcbnew,9.0.3
; #@! TF.FileFunction,Plated,1,4,PTH
FMAT,2
INCH
; #@! TA.AperFunction,Plated,PTH,ViaDrill
T1C0.0118
; #@! TA.AperFunction,Plated,PTH,ComponentDrill
T2C0.0157
; #@! TA.AperFunction,Plated,PTH,ComponentDrill
T3C0.0236
; #@! TA.AperFunction,Plated,PTH,ComponentDrill
T4C0.0354
; #@! TA.AperFunction,Plated,PTH,ComponentDrill
T5C0.0394
%
G90
G05
T1
X1.9094Y-3.0256
X1.91Y-3.9619
X2.0038Y-6.9619
X2.0975Y-4.7119
X2.1358Y-3.3043
X2.1358Y-4.2418
X2.1913Y-5.4619
X2.2296Y-7.2418
X2.2834Y-3.452
X2.2834Y-4.3895
X2.3233Y-4.9918
X2.3771Y-7.3895
X2.3788Y-6.2119
X2.3877Y-3.4137
X2.3877Y-4.3512
X2.4171Y-5.7418
X2.4709Y-5.1395
X2.4814Y-7.3512
X2.5646Y-5.8895
X2.5752Y-5.1012
X2.6046Y-6.4918
X2.66Y-3.9619
X2.6689Y-5.8512
X2.7521Y-6.6395
X2.8475Y-3.0244
X2.8564Y-6.6012
X2.8858Y-4.2418
X2.9413Y-6.9619
X3.0334Y-4.3895
X3.035Y-4.7119
X3.0733Y-3.3043
X3.1377Y-4.3512
X3.1671Y-7.2418
X3.2209Y-3.452
X3.2225Y-5.4619
X3.2608Y-4.9918
X3.3146Y-7.3895
X3.3252Y-3.4137
X3.4084Y-5.1395
X3.41Y-3.9619
X3.4189Y-7.3512
X3.4483Y-5.7418
X3.5127Y-5.1012
X3.5959Y-5.8895
X3.5975Y-3.0244
X3.5975Y-6.2119
X3.6358Y-4.2418
X3.7002Y-5.8512
X3.7834Y-4.3895
X3.785Y-4.7119
X3.8233Y-3.3043
X3.8233Y-6.4918
X3.8788Y-6.9619
X3.8877Y-4.3512
X3.9709Y-3.452
X3.9709Y-6.6395
X3.9725Y-5.4619
X4.0108Y-4.9918
X4.0752Y-3.4137
X4.0752Y-6.6012
X4.1046Y-7.2418
X4.1584Y-5.1395
X4.16Y-3.9619
X4.1983Y-5.7418
X4.2521Y-7.3895
X4.2627Y-5.1012
X4.2835Y-3.2854
X4.3459Y-5.8895
X4.3475Y-3.0244
X4.3475Y-6.2119
X4.3564Y-7.3512
X4.3858Y-4.2418
X4.4502Y-5.8512
X4.5334Y-4.3895
X4.535Y-4.7119
X4.5733Y-3.3043
X4.5733Y-6.4918
X4.6377Y-4.3512
X4.6476Y-7.1732
X4.7209Y-3.452
X4.7209Y-6.6395
X4.7225Y-5.4619
X4.7608Y-4.9918
X4.8252Y-3.4137
X4.8252Y-6.6012
X4.8445Y-4.2224
X4.9084Y-5.1395
X4.91Y-3.9619
X4.9483Y-5.7418
X5.0127Y-5.1012
X5.0959Y-5.8895
X5.0975Y-3.0244
X5.0975Y-6.2119
X5.1358Y-4.2418
X5.1813Y-6.7337
X5.2002Y-5.8512
X5.2205Y-4.9724
X5.2756Y-6.8878
X5.2756Y-7.2087
X5.2834Y-4.3895
X5.285Y-4.7119
X5.3233Y-3.3043
X5.3233Y-6.4918
X5.3346Y-7.0177
X5.3877Y-4.3512
X5.4075Y-5.7224
X5.4457Y-6.878
X5.4709Y-3.452
X5.4709Y-6.6395
X5.4725Y-5.4619
X5.4969Y-7.002
X5.502Y-6.9203
X5.5108Y-4.9918
X5.5577Y-7.2418
X5.567Y-7.0393
X5.5752Y-3.4137
X5.5752Y-6.6012
X5.6014Y-7.0393
X5.6584Y-5.1395
X5.66Y-3.9619
X5.6967Y-6.8719
X5.6983Y-5.7418
X5.7052Y-7.3895
X5.7627Y-5.1012
X5.7835Y-6.4724
X5.8071Y-6.9606
X5.8091Y-7.1988
X5.8096Y-7.3512
X5.8155Y-7.4114
X5.8459Y-5.8895
X5.8475Y-6.2119
X5.8858Y-4.2418
X5.9198Y-7.3051
X5.9205Y-6.9843
X5.9262Y-7.6063
X5.9502Y-5.8512
X5.9626Y-6.7087
X6.0148Y-7.5187
X6.0167Y-6.9882
X6.0197Y-7.1634
X6.0197Y-7.2067
X6.0197Y-7.25
X6.0197Y-7.2933
X6.0197Y-7.3366
X6.0197Y-7.3799
X6.0334Y-4.3895
X6.035Y-3.0244
X6.035Y-4.7119
X6.0394Y-6.9626
X6.0492Y-6.8031
X6.0733Y-6.4918
X6.1329Y-6.7648
X6.1358Y-7.5433
X6.1377Y-4.3512
X6.1478Y-7.0225
X6.1693Y-6.9163
X6.1926Y-7.0235
X6.2209Y-6.6395
X6.2225Y-5.4619
X6.2608Y-3.3043
X6.2608Y-4.9918
X6.3209Y-6.8602
X6.3252Y-6.6012
X6.3563Y-7.1614
X6.3583Y-7.1181
X6.4084Y-3.452
X6.4084Y-5.1395
X6.41Y-3.9619
X6.4483Y-5.7418
X6.4695Y-6.5797
X6.5127Y-3.4137
X6.5127Y-5.1012
X6.5453Y-7.063
X6.5512Y-7.5433
X6.5739Y-6.7337
X6.5959Y-5.8895
X6.5975Y-6.2119
X6.6212Y-6.7337
X6.6358Y-4.2418
X6.6381Y-6.993
X6.6407Y-6.9596
X6.6791Y-6.9331
X6.7002Y-5.8512
X6.7677Y-6.8937
X6.7834Y-4.3895
X6.785Y-3.0244
X6.785Y-4.7119
X6.8233Y-6.4918
X6.8386Y-6.875
X6.8877Y-4.3512
X6.9016Y-7.3012
X6.9171Y-7.2418
X6.9705Y-6.6358
X6.9725Y-5.4619
X7.0108Y-3.3043
X7.0108Y-4.9918
X7.0646Y-7.3895
X7.0752Y-6.6012
X7.1584Y-3.452
X7.1584Y-5.1395
X7.16Y-3.9619
X7.1689Y-7.3512
X7.1983Y-5.7418
X7.2323Y-7.2421
X7.2627Y-3.4137
X7.2627Y-5.1012
X7.3459Y-5.8895
X7.3475Y-6.2119
X7.376Y-7.2224
X7.3858Y-4.2418
X7.4502Y-5.8512
X7.5334Y-4.3895
X7.535Y-3.0244
X7.535Y-4.7119
X7.5615Y-6.8917
X7.5679Y-7.2756
X7.5733Y-6.4918
X7.6048Y-7.0098
X7.6299Y-7.185
X7.6377Y-4.3512
X7.6563Y-7.5012
X7.6786Y-7.1193
X7.7209Y-6.6395
X7.7222Y-7.1193
X7.7225Y-5.4619
X7.7563Y-6.9339
X7.7567Y-7.1882
X7.7608Y-3.3043
X7.7608Y-4.9918
X7.7843Y-7.449
X7.8159Y-6.8127
X7.8252Y-6.6012
X7.8482Y-7.449
X7.8748Y-7.1882
X7.9084Y-3.452
X7.9084Y-5.1395
X7.91Y-3.9619
X7.9114Y-7.1368
X7.939Y-7.0601
X7.9483Y-5.7418
X7.9516Y-7.1882
X7.9965Y-7.5012
X8.0049Y-6.8819
X8.0067Y-7.2374
X8.0127Y-3.4137
X8.0127Y-5.1012
X8.0497Y-6.8327
X8.0959Y-5.8895
X8.0975Y-6.2119
X8.1358Y-4.2418
X8.1545Y-7.3012
X8.1614Y-6.938
X8.1781Y-7.1978
X8.2002Y-5.8512
X8.2569Y-6.9833
X8.2618Y-6.8356
X8.2687Y-6.9331
X8.2765Y-7.2418
X8.2834Y-4.3895
X8.285Y-3.0244
X8.285Y-4.7119
X8.3233Y-6.4918
X8.3877Y-4.3512
X8.424Y-7.3895
X8.4709Y-6.6395
X8.4725Y-5.4619
X8.5108Y-3.3043
X8.5108Y-4.9918
X8.5283Y-7.3512
X8.5752Y-6.6012
X8.6584Y-3.452
X8.6584Y-5.1395
X8.66Y-3.9619
X8.6983Y-5.7418
X8.7627Y-3.4137
X8.7627Y-5.1012
X8.8459Y-5.8895
X8.8475Y-6.2119
X8.8858Y-4.2418
X8.921Y-7.1729
X8.9502Y-5.8512
X8.9573Y-6.7337
X9.0334Y-4.3895
X9.035Y-4.7119
X9.0733Y-6.4918
X9.0771Y-7.1729
X9.1377Y-4.3512
X9.2209Y-6.6395
X9.2225Y-3.0244
X9.2225Y-5.4619
X9.2608Y-4.9918
X9.3252Y-6.6012
X9.4084Y-5.1395
X9.41Y-3.9619
X9.41Y-6.9619
X9.4483Y-3.3043
X9.4483Y-5.7418
X9.5127Y-5.1012
X9.5959Y-3.452
X9.5959Y-5.8895
X9.5975Y-6.2119
X9.6358Y-4.2418
X9.6358Y-7.2418
X9.7002Y-3.4137
X9.7002Y-5.8512
X9.7834Y-4.3895
X9.7834Y-7.3895
X9.785Y-4.7119
X9.8233Y-6.4918
X9.8877Y-4.3512
X9.8877Y-7.3512
X9.9709Y-6.6395
X9.9725Y-3.0244
X9.9725Y-5.4619
X10.0108Y-4.9918
X10.0752Y-6.6012
X10.1584Y-5.1395
X10.16Y-3.9619
X10.16Y-6.9619
X10.1983Y-3.3043
X10.1983Y-5.7418
X10.2627Y-5.1012
X10.3459Y-3.452
X10.3459Y-5.8895
X10.3475Y-6.2119
X10.3858Y-4.2418
X10.3858Y-7.2418
X10.4502Y-3.4137
X10.4502Y-5.8512
X10.5334Y-4.3895
X10.5334Y-7.3895
X10.535Y-4.7119
X10.5733Y-6.4918
X10.6377Y-4.3512
X10.6377Y-7.3512
X10.7209Y-6.6395
X10.7225Y-3.0244
X10.7225Y-5.4619
X10.7608Y-4.9918
X10.8252Y-6.6012
X10.9084Y-5.1395
X10.91Y-3.9619
X10.91Y-6.9619
X10.9483Y-3.3043
X10.9483Y-5.7418
X11.0127Y-5.1012
X11.0959Y-3.452
X11.0959Y-5.8895
X11.1358Y-4.2418
X11.1358Y-7.2418
X11.2002Y-3.4137
X11.2002Y-5.8512
X11.2834Y-4.3895
X11.2834Y-7.3895
X11.285Y-4.7119
X11.3788Y-6.2119
X11.3877Y-4.3512
X11.3877Y-7.3512
X11.4725Y-3.0244
X11.5108Y-4.9918
X11.6046Y-6.4918
X11.6584Y-5.1395
X11.6983Y-3.3043
X11.7521Y-6.6395
X11.7627Y-5.1012
X11.8459Y-3.452
X11.8475Y-7.1494
X11.8564Y-6.6012
X11.9413Y-5.4619
X11.9502Y-3.4137
X12.035Y-3.9619
X12.0733Y-7.4293
X12.1671Y-5.7418
X12.2209Y-7.577
X12.2225Y-4.7119
X12.2608Y-4.2418
X12.3146Y-5.8895
X12.3252Y-7.5387
X12.4084Y-4.3895
X12.41Y-3.0244
X12.4189Y-5.8512
X12.4483Y-4.9918
X12.5127Y-4.3512
X12.5959Y-5.1395
X12.5975Y-6.3994
X12.5975Y-7.1494
X12.6358Y-3.3043
X12.7002Y-5.1012
X12.7834Y-3.452
X12.8233Y-6.6793
X12.8233Y-7.4293
X12.8877Y-3.4137
X12.9709Y-6.827
X12.9709Y-7.577
X13.0752Y-6.7887
X13.0752Y-7.5387
X13.3475Y-3.0244
X13.3475Y-3.9619
X13.3475Y-4.7119
X13.3475Y-5.4619
X13.3475Y-7.1494
X13.5733Y-3.3043
X13.5733Y-4.2418
X13.5733Y-4.9918
X13.5733Y-5.7418
X13.5733Y-7.4293
X13.7209Y-3.452
X13.7209Y-4.3895
X13.7209Y-5.1395
X13.7209Y-5.8895
X13.7209Y-7.577
X13.8252Y-3.4137
X13.8252Y-4.3512
X13.8252Y-5.1012
X13.8252Y-5.8512
X13.8252Y-7.5387
X13.8809Y-3.3041
T2
X6.1752Y-7.1201
X6.1752Y-7.1634
X6.1752Y-7.2067
X6.1752Y-7.25
X6.1752Y-7.2933
X6.1752Y-7.3366
X6.1752Y-7.3799
X6.1752Y-7.4232
X6.1752Y-7.4665
X6.5098Y-7.1201
X6.5098Y-7.1634
X6.5098Y-7.2067
X6.5098Y-7.25
X6.5098Y-7.2933
X6.5098Y-7.3366
X6.5098Y-7.3799
X6.5098Y-7.4232
X6.5098Y-7.4665
T4
X8.2256Y-7.4539
X8.2256Y-7.5327
T5
X6.9144Y-7.562
X7.0144Y-7.562
X7.1144Y-7.562
X7.2144Y-7.562
X7.3144Y-7.562
X7.4144Y-7.562
T3
G00X7.6563Y-7.439
M15
G01X7.6563Y-7.3957
M16
G05
G00X7.6563Y-7.5976
M15
G01X7.6563Y-7.5661
M16
G05
G00X7.9965Y-7.439
M15
G01X7.9965Y-7.3957
M16
G05
G00X7.9965Y-7.5976
M15
G01X7.9965Y-7.5661
M16
G05
M30
