M48
; DRILL file {KiCad 9.0.3} date 2025-12-22T19:43:02-0500
; FORMAT={-:-/ absolute / inch / decimal}
; #@! TF.CreationDate,2025-12-22T19:43:02-05:00
; #@! TF.GenerationSoftware,Kicad,Pcbnew,9.0.3
; #@! TF.FileFunction,NonPlated,1,4,NPTH
FMAT,2
INCH
; #@! TA.AperFunction,NonPlated,NPTH,ComponentDrill
T1C0.0256
; #@! TA.AperFunction,NonPlated,NPTH,ComponentDrill
T2C0.0669
; #@! TA.AperFunction,NonPlated,NPTH,ComponentDrill
T3C0.0670
; #@! TA.AperFunction,NonPlated,NPTH,ComponentDrill
T4C0.0689
; #@! TA.AperFunction,NonPlated,NPTH,ComponentDrill
T5C0.1181
; #@! TA.AperFunction,NonPlated,NPTH,ComponentDrill
T6C0.1201
; #@! TA.AperFunction,NonPlated,NPTH,ComponentDrill
T7C0.1570
; #@! TA.AperFunction,NonPlated,NPTH,ComponentDrill
T8C0.1575
%
G90
G05
T1
X7.7126Y-7.437
X7.9402Y-7.437
T2
X2.5538Y-6.3119
X2.9538Y-6.3119
X6.8663Y-7.0619
X7.2663Y-7.0619
X12.1163Y-5.5619
X12.21Y-4.0619
X12.5163Y-5.5619
X12.61Y-4.0619
T3
X2.085Y-3.1244
X2.085Y-4.0619
X2.1788Y-7.0619
X2.2725Y-4.8119
X2.3663Y-5.5619
X2.485Y-3.1244
X2.485Y-4.0619
X2.5538Y-6.3119
X2.5788Y-7.0619
X2.6725Y-4.8119
X2.7663Y-5.5619
X2.835Y-4.0619
X2.9538Y-6.3119
X3.0225Y-3.1244
X3.1163Y-7.0619
X3.21Y-4.8119
X3.235Y-4.0619
X3.3975Y-5.5619
X3.4225Y-3.1244
X3.5163Y-7.0619
X3.585Y-4.0619
X3.61Y-4.8119
X3.7725Y-3.1244
X3.7725Y-6.3119
X3.7975Y-5.5619
X3.96Y-4.8119
X3.985Y-4.0619
X4.0538Y-7.0619
X4.1475Y-5.5619
X4.1725Y-3.1244
X4.1725Y-6.3119
X4.335Y-4.0619
X4.36Y-4.8119
X4.4538Y-7.0619
X4.5225Y-3.1244
X4.5225Y-6.3119
X4.5475Y-5.5619
X4.71Y-4.8119
X4.735Y-4.0619
X4.8975Y-5.5619
X4.9225Y-3.1244
X4.9225Y-6.3119
X5.085Y-4.0619
X5.11Y-4.8119
X5.2725Y-3.1244
X5.2725Y-6.3119
X5.2975Y-5.5619
X5.46Y-4.8119
X5.485Y-4.0619
X5.6475Y-5.5619
X5.6725Y-3.1244
X5.6725Y-6.3119
X5.835Y-4.0619
X5.86Y-4.8119
X6.0225Y-6.3119
X6.0475Y-5.5619
X6.21Y-3.1244
X6.21Y-4.8119
X6.235Y-4.0619
X6.3975Y-5.5619
X6.4225Y-6.3119
X6.585Y-4.0619
X6.61Y-3.1244
X6.61Y-4.8119
X6.7725Y-6.3119
X6.7975Y-5.5619
X6.8663Y-7.0619
X6.96Y-3.1244
X6.96Y-4.8119
X6.985Y-4.0619
X7.1475Y-5.5619
X7.1725Y-6.3119
X7.2663Y-7.0619
X7.335Y-4.0619
X7.36Y-3.1244
X7.36Y-4.8119
X7.5225Y-6.3119
X7.5475Y-5.5619
X7.71Y-3.1244
X7.71Y-4.8119
X7.735Y-4.0619
X7.8975Y-5.5619
X7.9225Y-6.3119
X8.085Y-4.0619
X8.11Y-3.1244
X8.11Y-4.8119
X8.2725Y-6.3119
X8.2975Y-5.5619
X8.46Y-3.1244
X8.46Y-4.8119
X8.485Y-4.0619
X8.6475Y-5.5619
X8.6725Y-6.3119
X8.835Y-4.0619
X8.86Y-3.1244
X8.86Y-4.8119
X9.0225Y-6.3119
X9.0475Y-5.5619
X9.21Y-4.8119
X9.235Y-4.0619
X9.3975Y-3.1244
X9.3975Y-5.5619
X9.4225Y-6.3119
X9.585Y-4.0619
X9.585Y-7.0619
X9.61Y-4.8119
X9.7725Y-6.3119
X9.7975Y-3.1244
X9.7975Y-5.5619
X9.96Y-4.8119
X9.985Y-4.0619
X9.985Y-7.0619
X10.1475Y-3.1244
X10.1475Y-5.5619
X10.1725Y-6.3119
X10.335Y-4.0619
X10.335Y-7.0619
X10.36Y-4.8119
X10.5225Y-6.3119
X10.5475Y-3.1244
X10.5475Y-5.5619
X10.71Y-4.8119
X10.735Y-4.0619
X10.735Y-7.0619
X10.8975Y-3.1244
X10.8975Y-5.5619
X10.9225Y-6.3119
X11.085Y-4.0619
X11.085Y-7.0619
X11.11Y-4.8119
X11.2975Y-3.1244
X11.2975Y-5.5619
X11.46Y-4.8119
X11.485Y-4.0619
X11.485Y-7.0619
X11.5538Y-6.3119
X11.6475Y-3.1244
X11.86Y-4.8119
X11.9538Y-6.3119
X12.0225Y-7.2494
X12.0475Y-3.1244
X12.1163Y-5.5619
X12.21Y-4.0619
X12.3975Y-4.8119
X12.4225Y-7.2494
X12.5163Y-5.5619
X12.585Y-3.1244
X12.61Y-4.0619
X12.7725Y-6.4994
X12.7725Y-7.2494
X12.7975Y-4.8119
X12.985Y-3.1244
X13.1725Y-6.4994
X13.1725Y-7.2494
X13.5225Y-3.1244
X13.5225Y-4.0619
X13.5225Y-4.8119
X13.5225Y-5.5619
X13.5225Y-7.2494
X13.9225Y-3.1244
X13.9225Y-4.0619
X13.9225Y-4.8119
X13.9225Y-5.5619
X13.9225Y-7.2494
T4
X2.085Y-3.1244
X2.085Y-4.0619
X2.1788Y-7.0619
X2.2725Y-4.8119
X2.3663Y-5.5619
X2.485Y-3.1244
X2.485Y-4.0619
X2.5538Y-6.3119
X2.5788Y-7.0619
X2.6725Y-4.8119
X2.7663Y-5.5619
X2.835Y-4.0619
X2.9538Y-6.3119
X3.0225Y-3.1244
X3.1163Y-7.0619
X3.21Y-4.8119
X3.235Y-4.0619
X3.3975Y-5.5619
X3.4225Y-3.1244
X3.5163Y-7.0619
X3.585Y-4.0619
X3.61Y-4.8119
X3.7725Y-3.1244
X3.7725Y-6.3119
X3.7975Y-5.5619
X3.96Y-4.8119
X3.985Y-4.0619
X4.0538Y-7.0619
X4.1475Y-5.5619
X4.1725Y-3.1244
X4.1725Y-6.3119
X4.335Y-4.0619
X4.36Y-4.8119
X4.4538Y-7.0619
X4.5225Y-3.1244
X4.5225Y-6.3119
X4.5475Y-5.5619
X4.71Y-4.8119
X4.735Y-4.0619
X4.8975Y-5.5619
X4.9225Y-3.1244
X4.9225Y-6.3119
X5.085Y-4.0619
X5.11Y-4.8119
X5.2725Y-3.1244
X5.2725Y-6.3119
X5.2975Y-5.5619
X5.46Y-4.8119
X5.485Y-4.0619
X5.6475Y-5.5619
X5.6725Y-3.1244
X5.6725Y-6.3119
X5.835Y-4.0619
X5.86Y-4.8119
X6.0225Y-6.3119
X6.0475Y-5.5619
X6.21Y-3.1244
X6.21Y-4.8119
X6.235Y-4.0619
X6.3975Y-5.5619
X6.4225Y-6.3119
X6.585Y-4.0619
X6.61Y-3.1244
X6.61Y-4.8119
X6.7725Y-6.3119
X6.7975Y-5.5619
X6.8663Y-7.0619
X6.96Y-3.1244
X6.96Y-4.8119
X6.985Y-4.0619
X7.1475Y-5.5619
X7.1725Y-6.3119
X7.2663Y-7.0619
X7.335Y-4.0619
X7.36Y-3.1244
X7.36Y-4.8119
X7.5225Y-6.3119
X7.5475Y-5.5619
X7.71Y-3.1244
X7.71Y-4.8119
X7.735Y-4.0619
X7.8975Y-5.5619
X7.9225Y-6.3119
X8.085Y-4.0619
X8.11Y-3.1244
X8.11Y-4.8119
X8.2725Y-6.3119
X8.2975Y-5.5619
X8.46Y-3.1244
X8.46Y-4.8119
X8.485Y-4.0619
X8.6475Y-5.5619
X8.6725Y-6.3119
X8.835Y-4.0619
X8.86Y-3.1244
X8.86Y-4.8119
X9.0225Y-6.3119
X9.0475Y-5.5619
X9.21Y-4.8119
X9.235Y-4.0619
X9.3975Y-3.1244
X9.3975Y-5.5619
X9.4225Y-6.3119
X9.585Y-4.0619
X9.585Y-7.0619
X9.61Y-4.8119
X9.7725Y-6.3119
X9.7975Y-3.1244
X9.7975Y-5.5619
X9.96Y-4.8119
X9.985Y-4.0619
X9.985Y-7.0619
X10.1475Y-3.1244
X10.1475Y-5.5619
X10.1725Y-6.3119
X10.335Y-4.0619
X10.335Y-7.0619
X10.36Y-4.8119
X10.5225Y-6.3119
X10.5475Y-3.1244
X10.5475Y-5.5619
X10.71Y-4.8119
X10.735Y-4.0619
X10.735Y-7.0619
X10.8975Y-3.1244
X10.8975Y-5.5619
X10.9225Y-6.3119
X11.085Y-4.0619
X11.085Y-7.0619
X11.11Y-4.8119
X11.2975Y-3.1244
X11.2975Y-5.5619
X11.46Y-4.8119
X11.485Y-4.0619
X11.485Y-7.0619
X11.5538Y-6.3119
X11.6475Y-3.1244
X11.86Y-4.8119
X11.9538Y-6.3119
X12.0225Y-7.2494
X12.0475Y-3.1244
X12.1163Y-5.5619
X12.21Y-4.0619
X12.3975Y-4.8119
X12.4225Y-7.2494
X12.5163Y-5.5619
X12.585Y-3.1244
X12.61Y-4.0619
X12.7725Y-6.4994
X12.7725Y-7.2494
X12.7975Y-4.8119
X12.985Y-3.1244
X13.1725Y-6.4994
X13.1725Y-7.2494
X13.5225Y-3.1244
X13.5225Y-4.0619
X13.5225Y-4.8119
X13.5225Y-5.5619
X13.5225Y-7.2494
X13.9225Y-3.1244
X13.9225Y-4.0619
X13.9225Y-4.8119
X13.9225Y-5.5619
X13.9225Y-7.2494
T5
X2.135Y-3.0244
X2.135Y-3.9619
X2.2288Y-6.9619
X2.3225Y-4.7119
X2.385Y-2.9244
X2.385Y-3.8619
X2.4163Y-5.4619
X2.4788Y-6.8619
X2.5725Y-4.6119
X2.6038Y-6.2119
X2.6663Y-5.3619
X2.8538Y-6.1119
X2.885Y-3.9619
X3.0725Y-3.0244
X3.135Y-3.8619
X3.1663Y-6.9619
X3.26Y-4.7119
X3.3225Y-2.9244
X3.4163Y-6.8619
X3.4475Y-5.4619
X3.51Y-4.6119
X3.635Y-3.9619
X3.6975Y-5.3619
X3.8225Y-3.0244
X3.8225Y-6.2119
X3.885Y-3.8619
X4.01Y-4.7119
X4.0725Y-2.9244
X4.0725Y-6.1119
X4.1038Y-6.9619
X4.1975Y-5.4619
X4.26Y-4.6119
X4.3538Y-6.8619
X4.385Y-3.9619
X4.4475Y-5.3619
X4.5725Y-3.0244
X4.5725Y-6.2119
X4.635Y-3.8619
X4.76Y-4.7119
X4.8225Y-2.9244
X4.8225Y-6.1119
X4.9475Y-5.4619
X5.01Y-4.6119
X5.135Y-3.9619
X5.1975Y-5.3619
X5.3225Y-3.0244
X5.3225Y-6.2119
X5.385Y-3.8619
X5.51Y-4.7119
X5.5725Y-2.9244
X5.5725Y-6.1119
X5.6975Y-5.4619
X5.76Y-4.6119
X5.885Y-3.9619
X5.9475Y-5.3619
X6.0725Y-6.2119
X6.135Y-3.8619
X6.26Y-3.0244
X6.26Y-4.7119
X6.3225Y-6.1119
X6.4475Y-5.4619
X6.51Y-2.9244
X6.51Y-4.6119
X6.635Y-3.9619
X6.6975Y-5.3619
X6.8225Y-6.2119
X6.885Y-3.8619
X6.9163Y-6.9619
X7.01Y-3.0244
X7.01Y-4.7119
X7.0725Y-6.1119
X7.1663Y-6.8619
X7.1975Y-5.4619
X7.26Y-2.9244
X7.26Y-4.6119
X7.385Y-3.9619
X7.4475Y-5.3619
X7.5725Y-6.2119
X7.635Y-3.8619
X7.76Y-3.0244
X7.76Y-4.7119
X7.8225Y-6.1119
X7.9475Y-5.4619
X8.01Y-2.9244
X8.01Y-4.6119
X8.135Y-3.9619
X8.1975Y-5.3619
X8.3225Y-6.2119
X8.385Y-3.8619
X8.51Y-3.0244
X8.51Y-4.7119
X8.5725Y-6.1119
X8.6975Y-5.4619
X8.76Y-2.9244
X8.76Y-4.6119
X8.885Y-3.9619
X8.9475Y-5.3619
X9.0725Y-6.2119
X9.135Y-3.8619
X9.26Y-4.7119
X9.3225Y-6.1119
X9.4475Y-3.0244
X9.4475Y-5.4619
X9.51Y-4.6119
X9.635Y-3.9619
X9.635Y-6.9619
X9.6975Y-2.9244
X9.6975Y-5.3619
X9.8225Y-6.2119
X9.885Y-3.8619
X9.885Y-6.8619
X10.01Y-4.7119
X10.0725Y-6.1119
X10.1975Y-3.0244
X10.1975Y-5.4619
X10.26Y-4.6119
X10.385Y-3.9619
X10.385Y-6.9619
X10.4475Y-2.9244
X10.4475Y-5.3619
X10.5725Y-6.2119
X10.635Y-3.8619
X10.635Y-6.8619
X10.76Y-4.7119
X10.8225Y-6.1119
X10.9475Y-3.0244
X10.9475Y-5.4619
X11.01Y-4.6119
X11.135Y-3.9619
X11.135Y-6.9619
X11.1975Y-2.9244
X11.1975Y-5.3619
X11.385Y-3.8619
X11.385Y-6.8619
X11.51Y-4.7119
X11.6038Y-6.2119
X11.6975Y-3.0244
X11.76Y-4.6119
X11.8538Y-6.1119
X11.9475Y-2.9244
X12.0725Y-7.1494
X12.1663Y-5.4619
X12.26Y-3.9619
X12.3225Y-7.0494
X12.4163Y-5.3619
X12.4475Y-4.7119
X12.51Y-3.8619
X12.635Y-3.0244
X12.6975Y-4.6119
X12.8225Y-6.3994
X12.8225Y-7.1494
X12.885Y-2.9244
X13.0725Y-6.2994
X13.0725Y-7.0494
X13.5725Y-3.0244
X13.5725Y-3.9619
X13.5725Y-4.7119
X13.5725Y-5.4619
X13.5725Y-7.1494
X13.8225Y-2.9244
X13.8225Y-3.8619
X13.8225Y-4.6119
X13.8225Y-5.3619
X13.8225Y-7.0494
T6
X2.2853Y-6.0363
X3.2223Y-6.0363
X5.0978Y-6.7863
X9.0348Y-6.7863
X11.8478Y-5.8375
X11.9415Y-3.7863
X12.7848Y-5.8375
X12.8785Y-3.7863
T7
X2.285Y-3.1244
X2.285Y-4.0619
X2.3788Y-7.0619
X2.4725Y-4.8119
X2.5663Y-5.5619
X2.7538Y-6.3119
X3.035Y-4.0619
X3.2225Y-3.1244
X3.3163Y-7.0619
X3.41Y-4.8119
X3.5975Y-5.5619
X3.785Y-4.0619
X3.9725Y-3.1244
X3.9725Y-6.3119
X4.16Y-4.8119
X4.2538Y-7.0619
X4.3475Y-5.5619
X4.535Y-4.0619
X4.7225Y-3.1244
X4.7225Y-6.3119
X4.91Y-4.8119
X5.0975Y-5.5619
X5.285Y-4.0619
X5.4725Y-3.1244
X5.4725Y-6.3119
X5.66Y-4.8119
X5.8475Y-5.5619
X6.035Y-4.0619
X6.2225Y-6.3119
X6.41Y-3.1244
X6.41Y-4.8119
X6.5975Y-5.5619
X6.785Y-4.0619
X6.9725Y-6.3119
X7.0663Y-7.0619
X7.16Y-3.1244
X7.16Y-4.8119
X7.3475Y-5.5619
X7.535Y-4.0619
X7.7225Y-6.3119
X7.91Y-3.1244
X7.91Y-4.8119
X8.0975Y-5.5619
X8.285Y-4.0619
X8.4725Y-6.3119
X8.66Y-3.1244
X8.66Y-4.8119
X8.8475Y-5.5619
X9.035Y-4.0619
X9.2225Y-6.3119
X9.41Y-4.8119
X9.5975Y-3.1244
X9.5975Y-5.5619
X9.785Y-4.0619
X9.785Y-7.0619
X9.9725Y-6.3119
X10.16Y-4.8119
X10.3475Y-3.1244
X10.3475Y-5.5619
X10.535Y-4.0619
X10.535Y-7.0619
X10.7225Y-6.3119
X10.91Y-4.8119
X11.0975Y-3.1244
X11.0975Y-5.5619
X11.285Y-4.0619
X11.285Y-7.0619
X11.66Y-4.8119
X11.7538Y-6.3119
X11.8475Y-3.1244
X12.2225Y-7.2494
X12.3163Y-5.5619
X12.41Y-4.0619
X12.5975Y-4.8119
X12.785Y-3.1244
X12.9725Y-6.4994
X12.9725Y-7.2494
X13.7225Y-3.1244
X13.7225Y-4.0619
X13.7225Y-4.8119
X13.7225Y-5.5619
X13.7225Y-7.2494
T8
X2.285Y-3.1244
X2.285Y-4.0619
X2.2853Y-6.6363
X2.3788Y-7.0619
X2.4725Y-4.8119
X2.5663Y-5.5619
X2.7538Y-6.3119
X2.7538Y-6.3119
X3.035Y-4.0619
X3.2223Y-6.6363
X3.2225Y-3.1244
X3.3163Y-7.0619
X3.41Y-4.8119
X3.5975Y-5.5619
X3.785Y-4.0619
X3.9725Y-3.1244
X3.9725Y-6.3119
X4.16Y-4.8119
X4.2538Y-7.0619
X4.3475Y-5.5619
X4.535Y-4.0619
X4.7225Y-3.1244
X4.7225Y-6.3119
X4.91Y-4.8119
X5.0975Y-5.5619
X5.0978Y-7.3863
X5.285Y-4.0619
X5.4725Y-3.1244
X5.4725Y-6.3119
X5.66Y-4.8119
X5.8475Y-5.5619
X6.035Y-4.0619
X6.2225Y-6.3119
X6.41Y-3.1244
X6.41Y-4.8119
X6.5975Y-5.5619
X6.785Y-4.0619
X6.9725Y-6.3119
X7.0663Y-7.0619
X7.0663Y-7.0619
X7.16Y-3.1244
X7.16Y-4.8119
X7.3475Y-5.5619
X7.535Y-4.0619
X7.7225Y-6.3119
X7.91Y-3.1244
X7.91Y-4.8119
X8.0975Y-5.5619
X8.285Y-4.0619
X8.4725Y-6.3119
X8.66Y-3.1244
X8.66Y-4.8119
X8.8475Y-5.5619
X9.0348Y-7.3863
X9.035Y-4.0619
X9.2225Y-6.3119
X9.41Y-4.8119
X9.5975Y-3.1244
X9.5975Y-5.5619
X9.785Y-4.0619
X9.785Y-7.0619
X9.9725Y-6.3119
X10.16Y-4.8119
X10.3475Y-3.1244
X10.3475Y-5.5619
X10.535Y-4.0619
X10.535Y-7.0619
X10.7225Y-6.3119
X10.91Y-4.8119
X11.0975Y-3.1244
X11.0975Y-5.5619
X11.285Y-4.0619
X11.285Y-7.0619
X11.66Y-4.8119
X11.7538Y-6.3119
X11.8475Y-3.1244
X11.8478Y-5.2375
X11.9415Y-4.3863
X12.2225Y-7.2494
X12.3163Y-5.5619
X12.3163Y-5.5619
X12.41Y-4.0619
X12.41Y-4.0619
X12.5975Y-4.8119
X12.7848Y-5.2375
X12.785Y-3.1244
X12.8785Y-4.3863
X12.9725Y-6.4994
X12.9725Y-7.2494
X13.7225Y-3.1244
X13.7225Y-4.0619
X13.7225Y-4.8119
X13.7225Y-5.5619
X13.7225Y-7.2494
M30
