%TF.GenerationSoftware,KiCad,Pcbnew,9.0.3*%
%TF.CreationDate,2025-12-22T19:43:00-05:00*%
%TF.ProjectId,ansi_knob,616e7369-5f6b-46e6-9f62-2e6b69636164,rev?*%
%TF.SameCoordinates,Original*%
%TF.FileFunction,Profile,NP*%
%FSLAX46Y46*%
G04 Gerber Fmt 4.6, Leading zero omitted, Abs format (unit mm)*
G04 Created by KiCad (PCBNEW 9.0.3) date 2025-12-22 19:43:00*
%MOMM*%
%LPD*%
G01*
G04 APERTURE LIST*
%TA.AperFunction,Profile*%
%ADD10C,0.050000*%
%TD*%
%TA.AperFunction,Profile*%
%ADD11C,0.120000*%
%TD*%
G04 APERTURE END LIST*
D10*
X46765000Y-69745000D02*
X359827500Y-69745000D01*
X359827500Y-195210000D01*
X46765000Y-195210000D01*
X46765000Y-69745000D01*
D11*
%TO.C,L9*%
X180172250Y-83185000D02*
X180172250Y-86185000D01*
X180172250Y-86185000D02*
X183572250Y-86185000D01*
X183572250Y-83185000D02*
X180172250Y-83185000D01*
X183572250Y-86185000D02*
X183572250Y-83185000D01*
%TO.C,L22*%
X208747250Y-106997500D02*
X208747250Y-109997500D01*
X208747250Y-109997500D02*
X212147250Y-109997500D01*
X212147250Y-106997500D02*
X208747250Y-106997500D01*
X212147250Y-109997500D02*
X212147250Y-106997500D01*
%TO.C,L42*%
X123022250Y-126047500D02*
X123022250Y-129047500D01*
X123022250Y-129047500D02*
X126422250Y-129047500D01*
X126422250Y-126047500D02*
X123022250Y-126047500D01*
X126422250Y-129047500D02*
X126422250Y-126047500D01*
%TO.C,L53*%
X184934750Y-145097500D02*
X184934750Y-148097500D01*
X184934750Y-148097500D02*
X188334750Y-148097500D01*
X188334750Y-145097500D02*
X184934750Y-145097500D01*
X188334750Y-148097500D02*
X188334750Y-145097500D01*
%TO.C,L65*%
X194459750Y-164147500D02*
X194459750Y-167147500D01*
X194459750Y-167147500D02*
X197859750Y-167147500D01*
X197859750Y-164147500D02*
X194459750Y-164147500D01*
X197859750Y-167147500D02*
X197859750Y-164147500D01*
%TO.C,L67*%
X156359750Y-164147500D02*
X156359750Y-167147500D01*
X156359750Y-167147500D02*
X159759750Y-167147500D01*
X159759750Y-164147500D02*
X156359750Y-164147500D01*
X159759750Y-167147500D02*
X159759750Y-164147500D01*
%TO.C,L71*%
X68253500Y-164147500D02*
X68253500Y-167147500D01*
X68253500Y-167147500D02*
X71653500Y-167147500D01*
X71653500Y-164147500D02*
X68253500Y-164147500D01*
X71653500Y-167147500D02*
X71653500Y-164147500D01*
%TO.C,L70*%
X99209750Y-164147500D02*
X99209750Y-167147500D01*
X99209750Y-167147500D02*
X102609750Y-167147500D01*
X102609750Y-164147500D02*
X99209750Y-164147500D01*
X102609750Y-167147500D02*
X102609750Y-164147500D01*
%TO.C,L66*%
X175409750Y-164147500D02*
X175409750Y-167147500D01*
X175409750Y-167147500D02*
X178809750Y-167147500D01*
X178809750Y-164147500D02*
X175409750Y-164147500D01*
X178809750Y-167147500D02*
X178809750Y-164147500D01*
%TO.C,L74*%
X265897250Y-183197500D02*
X265897250Y-186197500D01*
X265897250Y-186197500D02*
X269297250Y-186197500D01*
X269297250Y-183197500D02*
X265897250Y-183197500D01*
X269297250Y-186197500D02*
X269297250Y-183197500D01*
%TO.C,L56*%
X127784750Y-145097500D02*
X127784750Y-148097500D01*
X127784750Y-148097500D02*
X131184750Y-148097500D01*
X131184750Y-145097500D02*
X127784750Y-145097500D01*
X131184750Y-148097500D02*
X131184750Y-145097500D01*
%TO.C,L59*%
X63491000Y-145097500D02*
X63491000Y-148097500D01*
X63491000Y-148097500D02*
X66891000Y-148097500D01*
X66891000Y-145097500D02*
X63491000Y-145097500D01*
X66891000Y-148097500D02*
X66891000Y-145097500D01*
%TO.C,L72*%
X327809750Y-168910000D02*
X327809750Y-171910000D01*
X327809750Y-171910000D02*
X331209750Y-171910000D01*
X331209750Y-168910000D02*
X327809750Y-168910000D01*
X331209750Y-171910000D02*
X331209750Y-168910000D01*
%TO.C,L24*%
X170647250Y-106997500D02*
X170647250Y-109997500D01*
X170647250Y-109997500D02*
X174047250Y-109997500D01*
X174047250Y-106997500D02*
X170647250Y-106997500D01*
X174047250Y-109997500D02*
X174047250Y-106997500D01*
%TO.C,L84*%
X308759750Y-187960000D02*
X308759750Y-190960000D01*
X308759750Y-190960000D02*
X312159750Y-190960000D01*
X312159750Y-187960000D02*
X308759750Y-187960000D01*
X312159750Y-190960000D02*
X312159750Y-187960000D01*
%TO.C,L13*%
X99209750Y-83185000D02*
X99209750Y-86185000D01*
X99209750Y-86185000D02*
X102609750Y-86185000D01*
X102609750Y-83185000D02*
X99209750Y-83185000D01*
X102609750Y-86185000D02*
X102609750Y-83185000D01*
%TO.C,L73*%
X284947250Y-183197500D02*
X284947250Y-186197500D01*
X284947250Y-186197500D02*
X288347250Y-186197500D01*
X288347250Y-183197500D02*
X284947250Y-183197500D01*
X288347250Y-186197500D02*
X288347250Y-183197500D01*
%TO.C,L49*%
X261134750Y-145097500D02*
X261134750Y-148097500D01*
X261134750Y-148097500D02*
X264534750Y-148097500D01*
X264534750Y-145097500D02*
X261134750Y-145097500D01*
X264534750Y-148097500D02*
X264534750Y-145097500D01*
%TO.C,L17*%
X313522250Y-106997500D02*
X313522250Y-109997500D01*
X313522250Y-109997500D02*
X316922250Y-109997500D01*
X316922250Y-106997500D02*
X313522250Y-106997500D01*
X316922250Y-109997500D02*
X316922250Y-106997500D01*
%TO.C,L60*%
X296853500Y-164147500D02*
X296853500Y-167147500D01*
X296853500Y-167147500D02*
X300253500Y-167147500D01*
X300253500Y-164147500D02*
X296853500Y-164147500D01*
X300253500Y-167147500D02*
X300253500Y-164147500D01*
%TO.C,L2*%
X323047250Y-83185000D02*
X323047250Y-86185000D01*
X323047250Y-86185000D02*
X326447250Y-86185000D01*
X326447250Y-83185000D02*
X323047250Y-83185000D01*
X326447250Y-86185000D02*
X326447250Y-83185000D01*
%TO.C,L14*%
X80159750Y-83185000D02*
X80159750Y-86185000D01*
X80159750Y-86185000D02*
X83559750Y-86185000D01*
X83559750Y-83185000D02*
X80159750Y-83185000D01*
X83559750Y-86185000D02*
X83559750Y-83185000D01*
%TO.C,L47*%
X311141000Y-145097500D02*
X311141000Y-148097500D01*
X311141000Y-148097500D02*
X314541000Y-148097500D01*
X314541000Y-145097500D02*
X311141000Y-145097500D01*
X314541000Y-148097500D02*
X314541000Y-145097500D01*
%TO.C,L40*%
X161122250Y-126047500D02*
X161122250Y-129047500D01*
X161122250Y-129047500D02*
X164522250Y-129047500D01*
X164522250Y-126047500D02*
X161122250Y-126047500D01*
X164522250Y-129047500D02*
X164522250Y-126047500D01*
%TO.C,L81*%
X58728500Y-183197500D02*
X58728500Y-186197500D01*
X58728500Y-186197500D02*
X62128500Y-186197500D01*
X62128500Y-183197500D02*
X58728500Y-183197500D01*
X62128500Y-186197500D02*
X62128500Y-183197500D01*
%TO.C,L26*%
X132547250Y-106997500D02*
X132547250Y-109997500D01*
X132547250Y-109997500D02*
X135947250Y-109997500D01*
X135947250Y-106997500D02*
X132547250Y-106997500D01*
X135947250Y-109997500D02*
X135947250Y-106997500D01*
%TO.C,L19*%
X265897250Y-106997500D02*
X265897250Y-109997500D01*
X265897250Y-109997500D02*
X269297250Y-109997500D01*
X269297250Y-106997500D02*
X265897250Y-106997500D01*
X269297250Y-109997500D02*
X269297250Y-106997500D01*
%TO.C,L69*%
X118259750Y-164147500D02*
X118259750Y-167147500D01*
X118259750Y-167147500D02*
X121659750Y-167147500D01*
X121659750Y-164147500D02*
X118259750Y-164147500D01*
X121659750Y-167147500D02*
X121659750Y-164147500D01*
%TO.C,L4*%
X280184750Y-83185000D02*
X280184750Y-86185000D01*
X280184750Y-86185000D02*
X283584750Y-86185000D01*
X283584750Y-83185000D02*
X280184750Y-83185000D01*
X283584750Y-86185000D02*
X283584750Y-83185000D01*
%TO.C,L16*%
X346859750Y-106997500D02*
X346859750Y-109997500D01*
X346859750Y-109997500D02*
X350259750Y-109997500D01*
X350259750Y-106997500D02*
X346859750Y-106997500D01*
X350259750Y-109997500D02*
X350259750Y-106997500D01*
%TO.C,L46*%
X346859750Y-145097500D02*
X346859750Y-148097500D01*
X346859750Y-148097500D02*
X350259750Y-148097500D01*
X350259750Y-145097500D02*
X346859750Y-145097500D01*
X350259750Y-148097500D02*
X350259750Y-145097500D01*
%TO.C,L51*%
X223034750Y-145097500D02*
X223034750Y-148097500D01*
X223034750Y-148097500D02*
X226434750Y-148097500D01*
X226434750Y-145097500D02*
X223034750Y-145097500D01*
X226434750Y-148097500D02*
X226434750Y-145097500D01*
%TO.C,L79*%
X106353500Y-183197500D02*
X106353500Y-186197500D01*
X106353500Y-186197500D02*
X109753500Y-186197500D01*
X109753500Y-183197500D02*
X106353500Y-183197500D01*
X109753500Y-186197500D02*
X109753500Y-183197500D01*
%TO.C,L12*%
X118259750Y-83185000D02*
X118259750Y-86185000D01*
X118259750Y-86185000D02*
X121659750Y-86185000D01*
X121659750Y-83185000D02*
X118259750Y-83185000D01*
X121659750Y-86185000D02*
X121659750Y-83185000D01*
%TO.C,L39*%
X180172250Y-126047500D02*
X180172250Y-129047500D01*
X180172250Y-129047500D02*
X183572250Y-129047500D01*
X183572250Y-126047500D02*
X180172250Y-126047500D01*
X183572250Y-129047500D02*
X183572250Y-126047500D01*
%TO.C,L83*%
X327809750Y-187960000D02*
X327809750Y-190960000D01*
X327809750Y-190960000D02*
X331209750Y-190960000D01*
X331209750Y-187960000D02*
X327809750Y-187960000D01*
X331209750Y-190960000D02*
X331209750Y-187960000D01*
%TO.C,L6*%
X242084750Y-83185000D02*
X242084750Y-86185000D01*
X242084750Y-86185000D02*
X245484750Y-86185000D01*
X245484750Y-83185000D02*
X242084750Y-83185000D01*
X245484750Y-86185000D02*
X245484750Y-83185000D01*
%TO.C,L7*%
X218272250Y-83185000D02*
X218272250Y-86185000D01*
X218272250Y-86185000D02*
X221672250Y-86185000D01*
X221672250Y-83185000D02*
X218272250Y-83185000D01*
X221672250Y-86185000D02*
X221672250Y-83185000D01*
%TO.C,L33*%
X294472250Y-126047500D02*
X294472250Y-129047500D01*
X294472250Y-129047500D02*
X297872250Y-129047500D01*
X297872250Y-126047500D02*
X294472250Y-126047500D01*
X297872250Y-129047500D02*
X297872250Y-126047500D01*
%TO.C,L55*%
X146834750Y-145097500D02*
X146834750Y-148097500D01*
X146834750Y-148097500D02*
X150234750Y-148097500D01*
X150234750Y-145097500D02*
X146834750Y-145097500D01*
X150234750Y-148097500D02*
X150234750Y-145097500D01*
%TO.C,L43*%
X103972250Y-126047500D02*
X103972250Y-129047500D01*
X103972250Y-129047500D02*
X107372250Y-129047500D01*
X107372250Y-126047500D02*
X103972250Y-126047500D01*
X107372250Y-129047500D02*
X107372250Y-126047500D01*
%TO.C,L68*%
X137309750Y-164147500D02*
X137309750Y-167147500D01*
X137309750Y-167147500D02*
X140709750Y-167147500D01*
X140709750Y-164147500D02*
X137309750Y-164147500D01*
X140709750Y-167147500D02*
X140709750Y-164147500D01*
%TO.C,L45*%
X61109750Y-126047500D02*
X61109750Y-129047500D01*
X61109750Y-129047500D02*
X64509750Y-129047500D01*
X64509750Y-126047500D02*
X61109750Y-126047500D01*
X64509750Y-129047500D02*
X64509750Y-126047500D01*
%TO.C,L52*%
X203984750Y-145097500D02*
X203984750Y-148097500D01*
X203984750Y-148097500D02*
X207384750Y-148097500D01*
X207384750Y-145097500D02*
X203984750Y-145097500D01*
X207384750Y-148097500D02*
X207384750Y-145097500D01*
%TO.C,L37*%
X218272250Y-126047500D02*
X218272250Y-129047500D01*
X218272250Y-129047500D02*
X221672250Y-129047500D01*
X221672250Y-126047500D02*
X218272250Y-126047500D01*
X221672250Y-129047500D02*
X221672250Y-126047500D01*
%TO.C,L41*%
X142072250Y-126047500D02*
X142072250Y-129047500D01*
X142072250Y-129047500D02*
X145472250Y-129047500D01*
X145472250Y-126047500D02*
X142072250Y-126047500D01*
X145472250Y-129047500D02*
X145472250Y-126047500D01*
%TO.C,L34*%
X275422250Y-126047500D02*
X275422250Y-129047500D01*
X275422250Y-129047500D02*
X278822250Y-129047500D01*
X278822250Y-126047500D02*
X275422250Y-126047500D01*
X278822250Y-129047500D02*
X278822250Y-126047500D01*
%TO.C,L27*%
X113497250Y-106997500D02*
X113497250Y-109997500D01*
X113497250Y-109997500D02*
X116897250Y-109997500D01*
X116897250Y-106997500D02*
X113497250Y-106997500D01*
X116897250Y-109997500D02*
X116897250Y-106997500D01*
%TO.C,L54*%
X165884750Y-145097500D02*
X165884750Y-148097500D01*
X165884750Y-148097500D02*
X169284750Y-148097500D01*
X169284750Y-145097500D02*
X165884750Y-145097500D01*
X169284750Y-148097500D02*
X169284750Y-145097500D01*
%TO.C,L63*%
X232559750Y-164147500D02*
X232559750Y-167147500D01*
X232559750Y-167147500D02*
X235959750Y-167147500D01*
X235959750Y-164147500D02*
X232559750Y-164147500D01*
X235959750Y-167147500D02*
X235959750Y-164147500D01*
%TO.C,L20*%
X246847250Y-106997500D02*
X246847250Y-109997500D01*
X246847250Y-109997500D02*
X250247250Y-109997500D01*
X250247250Y-106997500D02*
X246847250Y-106997500D01*
X250247250Y-109997500D02*
X250247250Y-106997500D01*
%TO.C,L3*%
X299234750Y-83185000D02*
X299234750Y-86185000D01*
X299234750Y-86185000D02*
X302634750Y-86185000D01*
X302634750Y-83185000D02*
X299234750Y-83185000D01*
X302634750Y-86185000D02*
X302634750Y-83185000D01*
%TO.C,L44*%
X84922250Y-126047500D02*
X84922250Y-129047500D01*
X84922250Y-129047500D02*
X88322250Y-129047500D01*
X88322250Y-126047500D02*
X84922250Y-126047500D01*
X88322250Y-129047500D02*
X88322250Y-126047500D01*
%TO.C,L38*%
X199222250Y-126047500D02*
X199222250Y-129047500D01*
X199222250Y-129047500D02*
X202622250Y-129047500D01*
X202622250Y-126047500D02*
X199222250Y-126047500D01*
X202622250Y-129047500D02*
X202622250Y-126047500D01*
%TO.C,L61*%
X270659750Y-164147500D02*
X270659750Y-167147500D01*
X270659750Y-167147500D02*
X274059750Y-167147500D01*
X274059750Y-164147500D02*
X270659750Y-164147500D01*
X274059750Y-167147500D02*
X274059750Y-164147500D01*
%TO.C,L5*%
X261134750Y-83185000D02*
X261134750Y-86185000D01*
X261134750Y-86185000D02*
X264534750Y-86185000D01*
X264534750Y-83185000D02*
X261134750Y-83185000D01*
X264534750Y-86185000D02*
X264534750Y-83185000D01*
%TO.C,L23*%
X189697250Y-106997500D02*
X189697250Y-109997500D01*
X189697250Y-109997500D02*
X193097250Y-109997500D01*
X193097250Y-106997500D02*
X189697250Y-106997500D01*
X193097250Y-109997500D02*
X193097250Y-106997500D01*
%TO.C,L48*%
X280184750Y-145097500D02*
X280184750Y-148097500D01*
X280184750Y-148097500D02*
X283584750Y-148097500D01*
X283584750Y-145097500D02*
X280184750Y-145097500D01*
X283584750Y-148097500D02*
X283584750Y-145097500D01*
%TO.C,L11*%
X137309750Y-83185000D02*
X137309750Y-86185000D01*
X137309750Y-86185000D02*
X140709750Y-86185000D01*
X140709750Y-83185000D02*
X137309750Y-83185000D01*
X140709750Y-86185000D02*
X140709750Y-83185000D01*
%TO.C,L1*%
X346859750Y-83185000D02*
X346859750Y-86185000D01*
X346859750Y-86185000D02*
X350259750Y-86185000D01*
X350259750Y-83185000D02*
X346859750Y-83185000D01*
X350259750Y-86185000D02*
X350259750Y-83185000D01*
%TO.C,L76*%
X212319125Y-183197500D02*
X212319125Y-186197500D01*
X212319125Y-186197500D02*
X215719125Y-186197500D01*
X215719125Y-183197500D02*
X212319125Y-183197500D01*
X215719125Y-186197500D02*
X215719125Y-183197500D01*
%TO.C,L18*%
X284947250Y-106997500D02*
X284947250Y-109997500D01*
X284947250Y-109997500D02*
X288347250Y-109997500D01*
X288347250Y-106997500D02*
X284947250Y-106997500D01*
X288347250Y-109997500D02*
X288347250Y-106997500D01*
%TO.C,L32*%
X318284750Y-126047500D02*
X318284750Y-129047500D01*
X318284750Y-129047500D02*
X321684750Y-129047500D01*
X321684750Y-126047500D02*
X318284750Y-126047500D01*
X321684750Y-129047500D02*
X321684750Y-126047500D01*
%TO.C,L8*%
X199222250Y-83185000D02*
X199222250Y-86185000D01*
X199222250Y-86185000D02*
X202622250Y-86185000D01*
X202622250Y-83185000D02*
X199222250Y-83185000D01*
X202622250Y-86185000D02*
X202622250Y-83185000D01*
%TO.C,L36*%
X237322250Y-126047500D02*
X237322250Y-129047500D01*
X237322250Y-129047500D02*
X240722250Y-129047500D01*
X240722250Y-126047500D02*
X237322250Y-126047500D01*
X240722250Y-129047500D02*
X240722250Y-126047500D01*
%TO.C,L64*%
X213509750Y-164147500D02*
X213509750Y-167147500D01*
X213509750Y-167147500D02*
X216909750Y-167147500D01*
X216909750Y-164147500D02*
X213509750Y-164147500D01*
X216909750Y-167147500D02*
X216909750Y-164147500D01*
%TO.C,L28*%
X94447250Y-106997500D02*
X94447250Y-109997500D01*
X94447250Y-109997500D02*
X97847250Y-109997500D01*
X97847250Y-106997500D02*
X94447250Y-106997500D01*
X97847250Y-109997500D02*
X97847250Y-106997500D01*
%TO.C,L10*%
X161122250Y-83185000D02*
X161122250Y-86185000D01*
X161122250Y-86185000D02*
X164522250Y-86185000D01*
X164522250Y-83185000D02*
X161122250Y-83185000D01*
X164522250Y-86185000D02*
X164522250Y-83185000D01*
%TO.C,L29*%
X75397250Y-106997500D02*
X75397250Y-109997500D01*
X75397250Y-109997500D02*
X78797250Y-109997500D01*
X78797250Y-106997500D02*
X75397250Y-106997500D01*
X78797250Y-109997500D02*
X78797250Y-106997500D01*
%TO.C,L80*%
X82541000Y-183197500D02*
X82541000Y-186197500D01*
X82541000Y-186197500D02*
X85941000Y-186197500D01*
X85941000Y-183197500D02*
X82541000Y-183197500D01*
X85941000Y-186197500D02*
X85941000Y-183197500D01*
%TO.C,L31*%
X346859750Y-126047500D02*
X346859750Y-129047500D01*
X346859750Y-129047500D02*
X350259750Y-129047500D01*
X350259750Y-126047500D02*
X346859750Y-126047500D01*
X350259750Y-129047500D02*
X350259750Y-126047500D01*
%TO.C,L58*%
X89684750Y-145097500D02*
X89684750Y-148097500D01*
X89684750Y-148097500D02*
X93084750Y-148097500D01*
X93084750Y-145097500D02*
X89684750Y-145097500D01*
X93084750Y-148097500D02*
X93084750Y-145097500D01*
%TO.C,L50*%
X242084750Y-145097500D02*
X242084750Y-148097500D01*
X242084750Y-148097500D02*
X245484750Y-148097500D01*
X245484750Y-145097500D02*
X242084750Y-145097500D01*
X245484750Y-148097500D02*
X245484750Y-145097500D01*
%TO.C,L78*%
X143262875Y-183197500D02*
X143262875Y-186197500D01*
X143262875Y-186197500D02*
X146662875Y-186197500D01*
X146662875Y-183197500D02*
X143262875Y-183197500D01*
X146662875Y-186197500D02*
X146662875Y-183197500D01*
%TO.C,L77*%
X177791000Y-183197500D02*
X177791000Y-186197500D01*
X177791000Y-186197500D02*
X181191000Y-186197500D01*
X181191000Y-183197500D02*
X177791000Y-183197500D01*
X181191000Y-186197500D02*
X181191000Y-183197500D01*
%TO.C,L35*%
X256372250Y-126047500D02*
X256372250Y-129047500D01*
X256372250Y-129047500D02*
X259772250Y-129047500D01*
X259772250Y-126047500D02*
X256372250Y-126047500D01*
X259772250Y-129047500D02*
X259772250Y-126047500D01*
%TO.C,L30*%
X56347250Y-106997500D02*
X56347250Y-109997500D01*
X56347250Y-109997500D02*
X59747250Y-109997500D01*
X59747250Y-106997500D02*
X56347250Y-106997500D01*
X59747250Y-109997500D02*
X59747250Y-106997500D01*
%TO.C,L21*%
X227797250Y-106997500D02*
X227797250Y-109997500D01*
X227797250Y-109997500D02*
X231197250Y-109997500D01*
X231197250Y-106997500D02*
X227797250Y-106997500D01*
X231197250Y-109997500D02*
X231197250Y-106997500D01*
%TO.C,L15*%
X56347250Y-83185000D02*
X56347250Y-86185000D01*
X56347250Y-86185000D02*
X59747250Y-86185000D01*
X59747250Y-83185000D02*
X56347250Y-83185000D01*
X59747250Y-86185000D02*
X59747250Y-83185000D01*
%TO.C,L75*%
X246847250Y-183197500D02*
X246847250Y-186197500D01*
X246847250Y-186197500D02*
X250247250Y-186197500D01*
X250247250Y-183197500D02*
X246847250Y-183197500D01*
X250247250Y-186197500D02*
X250247250Y-183197500D01*
%TO.C,L57*%
X108734750Y-145097500D02*
X108734750Y-148097500D01*
X108734750Y-148097500D02*
X112134750Y-148097500D01*
X112134750Y-145097500D02*
X108734750Y-145097500D01*
X112134750Y-148097500D02*
X112134750Y-145097500D01*
%TO.C,L25*%
X151597250Y-106997500D02*
X151597250Y-109997500D01*
X151597250Y-109997500D02*
X154997250Y-109997500D01*
X154997250Y-106997500D02*
X151597250Y-106997500D01*
X154997250Y-109997500D02*
X154997250Y-106997500D01*
%TO.C,L82*%
X346859750Y-187960000D02*
X346859750Y-190960000D01*
X346859750Y-190960000D02*
X350259750Y-190960000D01*
X350259750Y-187960000D02*
X346859750Y-187960000D01*
X350259750Y-190960000D02*
X350259750Y-187960000D01*
%TO.C,L62*%
X251609750Y-164147500D02*
X251609750Y-167147500D01*
X251609750Y-167147500D02*
X255009750Y-167147500D01*
X255009750Y-164147500D02*
X251609750Y-164147500D01*
X255009750Y-167147500D02*
X255009750Y-164147500D01*
%TD*%
M02*
